<mxfile host="app.diagrams.net" agent="Mozilla/5.0 (Windows NT 10.0; Win64; x64) AppleWebKit/537.36 (KHTML, like Gecko) Chrome/129.0.0.0 Safari/537.36" version="24.7.17">
  <diagram name="PÃ¡gina-1" id="uARfIPaF0OHQN33vCCdu">
    <mxGraphModel dx="2442" dy="1972" grid="1" gridSize="10" guides="1" tooltips="1" connect="1" arrows="1" fold="1" page="1" pageScale="1" pageWidth="827" pageHeight="1169" math="0" shadow="0">
      <root>
        <mxCell id="0" />
        <mxCell id="1" parent="0" />
        <mxCell id="eS1TJTtyaAnnKSHnrGX8-71" style="edgeStyle=orthogonalEdgeStyle;shape=connector;rounded=0;orthogonalLoop=1;jettySize=auto;html=1;exitX=1;exitY=0;exitDx=0;exitDy=0;entryX=0.5;entryY=1;entryDx=0;entryDy=0;strokeColor=default;align=center;verticalAlign=middle;fontFamily=Helvetica;fontSize=11;fontColor=default;labelBackgroundColor=default;endArrow=none;endFill=0;" edge="1" parent="1" source="NlLAO1y9bpEwz6I62MiX-1" target="eS1TJTtyaAnnKSHnrGX8-29">
          <mxGeometry relative="1" as="geometry" />
        </mxCell>
        <mxCell id="eS1TJTtyaAnnKSHnrGX8-72" style="edgeStyle=orthogonalEdgeStyle;shape=connector;rounded=0;orthogonalLoop=1;jettySize=auto;html=1;exitX=0.75;exitY=0;exitDx=0;exitDy=0;entryX=0.5;entryY=1;entryDx=0;entryDy=0;strokeColor=default;align=center;verticalAlign=middle;fontFamily=Helvetica;fontSize=11;fontColor=default;labelBackgroundColor=default;endArrow=none;endFill=0;" edge="1" parent="1" source="NlLAO1y9bpEwz6I62MiX-1" target="eS1TJTtyaAnnKSHnrGX8-28">
          <mxGeometry relative="1" as="geometry" />
        </mxCell>
        <mxCell id="eS1TJTtyaAnnKSHnrGX8-73" style="edgeStyle=orthogonalEdgeStyle;shape=connector;rounded=0;orthogonalLoop=1;jettySize=auto;html=1;exitX=0.25;exitY=0;exitDx=0;exitDy=0;entryX=0.5;entryY=1;entryDx=0;entryDy=0;strokeColor=default;align=center;verticalAlign=middle;fontFamily=Helvetica;fontSize=11;fontColor=default;labelBackgroundColor=default;endArrow=none;endFill=0;" edge="1" parent="1" source="NlLAO1y9bpEwz6I62MiX-1" target="eS1TJTtyaAnnKSHnrGX8-26">
          <mxGeometry relative="1" as="geometry" />
        </mxCell>
        <mxCell id="eS1TJTtyaAnnKSHnrGX8-74" style="edgeStyle=orthogonalEdgeStyle;shape=connector;rounded=0;orthogonalLoop=1;jettySize=auto;html=1;exitX=0;exitY=0;exitDx=0;exitDy=0;entryX=0.5;entryY=1;entryDx=0;entryDy=0;strokeColor=default;align=center;verticalAlign=middle;fontFamily=Helvetica;fontSize=11;fontColor=default;labelBackgroundColor=default;endArrow=none;endFill=0;" edge="1" parent="1" source="NlLAO1y9bpEwz6I62MiX-1" target="eS1TJTtyaAnnKSHnrGX8-35">
          <mxGeometry relative="1" as="geometry" />
        </mxCell>
        <mxCell id="eS1TJTtyaAnnKSHnrGX8-113" style="edgeStyle=orthogonalEdgeStyle;shape=connector;rounded=0;orthogonalLoop=1;jettySize=auto;html=1;exitX=0.5;exitY=1;exitDx=0;exitDy=0;strokeColor=default;align=center;verticalAlign=middle;fontFamily=Helvetica;fontSize=11;fontColor=default;labelBackgroundColor=default;endArrow=none;endFill=0;" edge="1" parent="1" source="NlLAO1y9bpEwz6I62MiX-1" target="eS1TJTtyaAnnKSHnrGX8-12">
          <mxGeometry relative="1" as="geometry" />
        </mxCell>
        <mxCell id="eS1TJTtyaAnnKSHnrGX8-114" value="N" style="edgeLabel;html=1;align=center;verticalAlign=middle;resizable=0;points=[];fontFamily=Helvetica;fontSize=11;fontColor=default;labelBackgroundColor=default;" vertex="1" connectable="0" parent="eS1TJTtyaAnnKSHnrGX8-113">
          <mxGeometry x="-0.0105" y="1" relative="1" as="geometry">
            <mxPoint as="offset" />
          </mxGeometry>
        </mxCell>
        <mxCell id="NlLAO1y9bpEwz6I62MiX-1" value="Livro" style="rounded=0;whiteSpace=wrap;html=1;" vertex="1" parent="1">
          <mxGeometry x="490" y="60" width="110" height="30" as="geometry" />
        </mxCell>
        <mxCell id="eS1TJTtyaAnnKSHnrGX8-87" style="edgeStyle=orthogonalEdgeStyle;shape=connector;rounded=0;orthogonalLoop=1;jettySize=auto;html=1;exitX=0.25;exitY=0;exitDx=0;exitDy=0;entryX=0.5;entryY=1;entryDx=0;entryDy=0;strokeColor=default;align=center;verticalAlign=middle;fontFamily=Helvetica;fontSize=11;fontColor=default;labelBackgroundColor=default;endArrow=none;endFill=0;" edge="1" parent="1" source="NlLAO1y9bpEwz6I62MiX-3" target="eS1TJTtyaAnnKSHnrGX8-5">
          <mxGeometry relative="1" as="geometry" />
        </mxCell>
        <mxCell id="eS1TJTtyaAnnKSHnrGX8-88" style="edgeStyle=orthogonalEdgeStyle;shape=connector;rounded=0;orthogonalLoop=1;jettySize=auto;html=1;exitX=0.75;exitY=0;exitDx=0;exitDy=0;strokeColor=default;align=center;verticalAlign=middle;fontFamily=Helvetica;fontSize=11;fontColor=default;labelBackgroundColor=default;endArrow=none;endFill=0;" edge="1" parent="1" source="NlLAO1y9bpEwz6I62MiX-3" target="eS1TJTtyaAnnKSHnrGX8-8">
          <mxGeometry relative="1" as="geometry" />
        </mxCell>
        <mxCell id="eS1TJTtyaAnnKSHnrGX8-90" style="edgeStyle=orthogonalEdgeStyle;shape=connector;rounded=0;orthogonalLoop=1;jettySize=auto;html=1;exitX=0;exitY=0.5;exitDx=0;exitDy=0;entryX=0.5;entryY=1;entryDx=0;entryDy=0;strokeColor=default;align=center;verticalAlign=middle;fontFamily=Helvetica;fontSize=11;fontColor=default;labelBackgroundColor=default;endArrow=none;endFill=0;" edge="1" parent="1" source="NlLAO1y9bpEwz6I62MiX-3" target="eS1TJTtyaAnnKSHnrGX8-12">
          <mxGeometry relative="1" as="geometry" />
        </mxCell>
        <mxCell id="eS1TJTtyaAnnKSHnrGX8-91" value="1" style="edgeLabel;html=1;align=center;verticalAlign=middle;resizable=0;points=[];fontFamily=Helvetica;fontSize=11;fontColor=default;labelBackgroundColor=default;" vertex="1" connectable="0" parent="eS1TJTtyaAnnKSHnrGX8-90">
          <mxGeometry x="0.5446" y="-1" relative="1" as="geometry">
            <mxPoint y="-1" as="offset" />
          </mxGeometry>
        </mxCell>
        <mxCell id="NlLAO1y9bpEwz6I62MiX-3" value="Categoria" style="rounded=0;whiteSpace=wrap;html=1;" vertex="1" parent="1">
          <mxGeometry x="660" y="290" width="110" height="30" as="geometry" />
        </mxCell>
        <mxCell id="eS1TJTtyaAnnKSHnrGX8-68" style="edgeStyle=orthogonalEdgeStyle;shape=connector;rounded=0;orthogonalLoop=1;jettySize=auto;html=1;exitX=1;exitY=0;exitDx=0;exitDy=0;entryX=0.5;entryY=1;entryDx=0;entryDy=0;strokeColor=default;align=center;verticalAlign=middle;fontFamily=Helvetica;fontSize=11;fontColor=default;labelBackgroundColor=default;endArrow=none;endFill=0;" edge="1" parent="1" source="NlLAO1y9bpEwz6I62MiX-4" target="eS1TJTtyaAnnKSHnrGX8-9">
          <mxGeometry relative="1" as="geometry" />
        </mxCell>
        <mxCell id="eS1TJTtyaAnnKSHnrGX8-69" style="edgeStyle=orthogonalEdgeStyle;shape=connector;rounded=0;orthogonalLoop=1;jettySize=auto;html=1;exitX=0.5;exitY=0;exitDx=0;exitDy=0;entryX=0.5;entryY=1;entryDx=0;entryDy=0;strokeColor=default;align=center;verticalAlign=middle;fontFamily=Helvetica;fontSize=11;fontColor=default;labelBackgroundColor=default;endArrow=none;endFill=0;" edge="1" parent="1" source="NlLAO1y9bpEwz6I62MiX-4" target="eS1TJTtyaAnnKSHnrGX8-11">
          <mxGeometry relative="1" as="geometry" />
        </mxCell>
        <mxCell id="eS1TJTtyaAnnKSHnrGX8-70" style="edgeStyle=orthogonalEdgeStyle;shape=connector;rounded=0;orthogonalLoop=1;jettySize=auto;html=1;exitX=0;exitY=0;exitDx=0;exitDy=0;entryX=0.5;entryY=1;entryDx=0;entryDy=0;strokeColor=default;align=center;verticalAlign=middle;fontFamily=Helvetica;fontSize=11;fontColor=default;labelBackgroundColor=default;endArrow=none;endFill=0;" edge="1" parent="1" source="NlLAO1y9bpEwz6I62MiX-4" target="eS1TJTtyaAnnKSHnrGX8-10">
          <mxGeometry relative="1" as="geometry" />
        </mxCell>
        <mxCell id="eS1TJTtyaAnnKSHnrGX8-79" style="edgeStyle=orthogonalEdgeStyle;shape=connector;rounded=0;orthogonalLoop=1;jettySize=auto;html=1;exitX=1;exitY=0.5;exitDx=0;exitDy=0;entryX=0;entryY=0.5;entryDx=0;entryDy=0;strokeColor=default;align=center;verticalAlign=middle;fontFamily=Helvetica;fontSize=11;fontColor=default;labelBackgroundColor=default;endArrow=none;endFill=0;" edge="1" parent="1" source="NlLAO1y9bpEwz6I62MiX-4" target="eS1TJTtyaAnnKSHnrGX8-1">
          <mxGeometry relative="1" as="geometry" />
        </mxCell>
        <mxCell id="eS1TJTtyaAnnKSHnrGX8-80" value="N" style="edgeLabel;html=1;align=center;verticalAlign=middle;resizable=0;points=[];fontFamily=Helvetica;fontSize=11;fontColor=default;labelBackgroundColor=default;" vertex="1" connectable="0" parent="eS1TJTtyaAnnKSHnrGX8-79">
          <mxGeometry x="0.0895" y="-1" relative="1" as="geometry">
            <mxPoint as="offset" />
          </mxGeometry>
        </mxCell>
        <mxCell id="NlLAO1y9bpEwz6I62MiX-4" value="Autor" style="rounded=0;whiteSpace=wrap;html=1;" vertex="1" parent="1">
          <mxGeometry x="-170" y="60" width="110" height="30" as="geometry" />
        </mxCell>
        <mxCell id="eS1TJTtyaAnnKSHnrGX8-95" style="edgeStyle=orthogonalEdgeStyle;shape=connector;rounded=0;orthogonalLoop=1;jettySize=auto;html=1;exitX=0;exitY=0.5;exitDx=0;exitDy=0;entryX=0.5;entryY=1;entryDx=0;entryDy=0;strokeColor=default;align=center;verticalAlign=middle;fontFamily=Helvetica;fontSize=11;fontColor=default;labelBackgroundColor=default;endArrow=none;endFill=0;" edge="1" parent="1" source="NlLAO1y9bpEwz6I62MiX-6" target="eS1TJTtyaAnnKSHnrGX8-48">
          <mxGeometry relative="1" as="geometry" />
        </mxCell>
        <mxCell id="eS1TJTtyaAnnKSHnrGX8-97" style="edgeStyle=orthogonalEdgeStyle;shape=connector;rounded=0;orthogonalLoop=1;jettySize=auto;html=1;exitX=1;exitY=0.5;exitDx=0;exitDy=0;entryX=0.5;entryY=1;entryDx=0;entryDy=0;strokeColor=default;align=center;verticalAlign=middle;fontFamily=Helvetica;fontSize=11;fontColor=default;labelBackgroundColor=default;endArrow=none;endFill=0;" edge="1" parent="1" source="NlLAO1y9bpEwz6I62MiX-6" target="eS1TJTtyaAnnKSHnrGX8-56">
          <mxGeometry relative="1" as="geometry" />
        </mxCell>
        <mxCell id="eS1TJTtyaAnnKSHnrGX8-98" style="edgeStyle=orthogonalEdgeStyle;shape=connector;rounded=0;orthogonalLoop=1;jettySize=auto;html=1;exitX=1;exitY=0;exitDx=0;exitDy=0;entryX=0.5;entryY=1;entryDx=0;entryDy=0;strokeColor=default;align=center;verticalAlign=middle;fontFamily=Helvetica;fontSize=11;fontColor=default;labelBackgroundColor=default;endArrow=none;endFill=0;" edge="1" parent="1" source="NlLAO1y9bpEwz6I62MiX-6" target="eS1TJTtyaAnnKSHnrGX8-54">
          <mxGeometry relative="1" as="geometry" />
        </mxCell>
        <mxCell id="eS1TJTtyaAnnKSHnrGX8-99" style="edgeStyle=orthogonalEdgeStyle;shape=connector;rounded=0;orthogonalLoop=1;jettySize=auto;html=1;exitX=0;exitY=0;exitDx=0;exitDy=0;entryX=0.5;entryY=1;entryDx=0;entryDy=0;strokeColor=default;align=center;verticalAlign=middle;fontFamily=Helvetica;fontSize=11;fontColor=default;labelBackgroundColor=default;endArrow=none;endFill=0;" edge="1" parent="1" source="NlLAO1y9bpEwz6I62MiX-6" target="eS1TJTtyaAnnKSHnrGX8-58">
          <mxGeometry relative="1" as="geometry" />
        </mxCell>
        <mxCell id="eS1TJTtyaAnnKSHnrGX8-100" style="edgeStyle=orthogonalEdgeStyle;shape=connector;rounded=0;orthogonalLoop=1;jettySize=auto;html=1;exitX=0.5;exitY=0;exitDx=0;exitDy=0;entryX=0.5;entryY=1;entryDx=0;entryDy=0;strokeColor=default;align=center;verticalAlign=middle;fontFamily=Helvetica;fontSize=11;fontColor=default;labelBackgroundColor=default;endArrow=none;endFill=0;" edge="1" parent="1" source="NlLAO1y9bpEwz6I62MiX-6" target="eS1TJTtyaAnnKSHnrGX8-60">
          <mxGeometry relative="1" as="geometry" />
        </mxCell>
        <mxCell id="eS1TJTtyaAnnKSHnrGX8-101" style="edgeStyle=orthogonalEdgeStyle;shape=connector;rounded=0;orthogonalLoop=1;jettySize=auto;html=1;exitX=0.5;exitY=1;exitDx=0;exitDy=0;entryX=0;entryY=0.5;entryDx=0;entryDy=0;strokeColor=default;align=center;verticalAlign=middle;fontFamily=Helvetica;fontSize=11;fontColor=default;labelBackgroundColor=default;endArrow=none;endFill=0;" edge="1" parent="1" source="NlLAO1y9bpEwz6I62MiX-6" target="eS1TJTtyaAnnKSHnrGX8-2">
          <mxGeometry relative="1" as="geometry" />
        </mxCell>
        <mxCell id="eS1TJTtyaAnnKSHnrGX8-111" value="1" style="edgeLabel;html=1;align=center;verticalAlign=middle;resizable=0;points=[];fontFamily=Helvetica;fontSize=11;fontColor=default;labelBackgroundColor=default;" vertex="1" connectable="0" parent="eS1TJTtyaAnnKSHnrGX8-101">
          <mxGeometry x="0.162" relative="1" as="geometry">
            <mxPoint x="-1" as="offset" />
          </mxGeometry>
        </mxCell>
        <mxCell id="NlLAO1y9bpEwz6I62MiX-6" value="Leitor" style="rounded=0;whiteSpace=wrap;html=1;" vertex="1" parent="1">
          <mxGeometry x="-130" y="440" width="110" height="30" as="geometry" />
        </mxCell>
        <mxCell id="eS1TJTtyaAnnKSHnrGX8-104" style="edgeStyle=orthogonalEdgeStyle;shape=connector;rounded=0;orthogonalLoop=1;jettySize=auto;html=1;exitX=0;exitY=0.25;exitDx=0;exitDy=0;entryX=0.5;entryY=1;entryDx=0;entryDy=0;strokeColor=default;align=center;verticalAlign=middle;fontFamily=Helvetica;fontSize=11;fontColor=default;labelBackgroundColor=default;endArrow=none;endFill=0;" edge="1" parent="1" source="NlLAO1y9bpEwz6I62MiX-7" target="eS1TJTtyaAnnKSHnrGX8-39">
          <mxGeometry relative="1" as="geometry" />
        </mxCell>
        <mxCell id="eS1TJTtyaAnnKSHnrGX8-105" style="edgeStyle=orthogonalEdgeStyle;shape=connector;rounded=0;orthogonalLoop=1;jettySize=auto;html=1;exitX=1;exitY=0.5;exitDx=0;exitDy=0;entryX=0.5;entryY=1;entryDx=0;entryDy=0;strokeColor=default;align=center;verticalAlign=middle;fontFamily=Helvetica;fontSize=11;fontColor=default;labelBackgroundColor=default;endArrow=none;endFill=0;" edge="1" parent="1" source="NlLAO1y9bpEwz6I62MiX-7" target="eS1TJTtyaAnnKSHnrGX8-42">
          <mxGeometry relative="1" as="geometry" />
        </mxCell>
        <mxCell id="eS1TJTtyaAnnKSHnrGX8-106" style="edgeStyle=orthogonalEdgeStyle;shape=connector;rounded=0;orthogonalLoop=1;jettySize=auto;html=1;exitX=1;exitY=0;exitDx=0;exitDy=0;entryX=0.5;entryY=1;entryDx=0;entryDy=0;strokeColor=default;align=center;verticalAlign=middle;fontFamily=Helvetica;fontSize=11;fontColor=default;labelBackgroundColor=default;endArrow=none;endFill=0;" edge="1" parent="1" source="NlLAO1y9bpEwz6I62MiX-7" target="eS1TJTtyaAnnKSHnrGX8-41">
          <mxGeometry relative="1" as="geometry" />
        </mxCell>
        <mxCell id="eS1TJTtyaAnnKSHnrGX8-107" style="edgeStyle=orthogonalEdgeStyle;shape=connector;rounded=0;orthogonalLoop=1;jettySize=auto;html=1;exitX=0;exitY=0;exitDx=0;exitDy=0;entryX=0.5;entryY=1;entryDx=0;entryDy=0;strokeColor=default;align=center;verticalAlign=middle;fontFamily=Helvetica;fontSize=11;fontColor=default;labelBackgroundColor=default;endArrow=none;endFill=0;" edge="1" parent="1" source="NlLAO1y9bpEwz6I62MiX-7" target="eS1TJTtyaAnnKSHnrGX8-40">
          <mxGeometry relative="1" as="geometry" />
        </mxCell>
        <mxCell id="eS1TJTtyaAnnKSHnrGX8-108" style="edgeStyle=orthogonalEdgeStyle;shape=connector;rounded=0;orthogonalLoop=1;jettySize=auto;html=1;exitX=0.5;exitY=0;exitDx=0;exitDy=0;entryX=0.5;entryY=1;entryDx=0;entryDy=0;strokeColor=default;align=center;verticalAlign=middle;fontFamily=Helvetica;fontSize=11;fontColor=default;labelBackgroundColor=default;endArrow=none;endFill=0;" edge="1" parent="1" source="NlLAO1y9bpEwz6I62MiX-7" target="eS1TJTtyaAnnKSHnrGX8-62">
          <mxGeometry relative="1" as="geometry" />
        </mxCell>
        <mxCell id="eS1TJTtyaAnnKSHnrGX8-110" style="edgeStyle=orthogonalEdgeStyle;shape=connector;rounded=0;orthogonalLoop=1;jettySize=auto;html=1;exitX=0.5;exitY=1;exitDx=0;exitDy=0;entryX=1;entryY=0.5;entryDx=0;entryDy=0;strokeColor=default;align=center;verticalAlign=middle;fontFamily=Helvetica;fontSize=11;fontColor=default;labelBackgroundColor=default;endArrow=none;endFill=0;" edge="1" parent="1" source="NlLAO1y9bpEwz6I62MiX-7" target="eS1TJTtyaAnnKSHnrGX8-2">
          <mxGeometry relative="1" as="geometry" />
        </mxCell>
        <mxCell id="eS1TJTtyaAnnKSHnrGX8-112" value="N" style="edgeLabel;html=1;align=center;verticalAlign=middle;resizable=0;points=[];fontFamily=Helvetica;fontSize=11;fontColor=default;labelBackgroundColor=default;" vertex="1" connectable="0" parent="eS1TJTtyaAnnKSHnrGX8-110">
          <mxGeometry x="0.1512" relative="1" as="geometry">
            <mxPoint x="-1" as="offset" />
          </mxGeometry>
        </mxCell>
        <mxCell id="NlLAO1y9bpEwz6I62MiX-7" value="EmprÃ©stimo" style="rounded=0;whiteSpace=wrap;html=1;" vertex="1" parent="1">
          <mxGeometry x="430" y="460" width="110" height="30" as="geometry" />
        </mxCell>
        <mxCell id="eS1TJTtyaAnnKSHnrGX8-34" style="edgeStyle=orthogonalEdgeStyle;shape=connector;rounded=0;orthogonalLoop=1;jettySize=auto;html=1;exitX=1;exitY=0.5;exitDx=0;exitDy=0;entryX=0;entryY=0.5;entryDx=0;entryDy=0;strokeColor=default;align=center;verticalAlign=middle;fontFamily=Helvetica;fontSize=11;fontColor=default;labelBackgroundColor=default;endArrow=none;endFill=0;" edge="1" parent="1" source="eS1TJTtyaAnnKSHnrGX8-1" target="NlLAO1y9bpEwz6I62MiX-1">
          <mxGeometry relative="1" as="geometry" />
        </mxCell>
        <mxCell id="eS1TJTtyaAnnKSHnrGX8-78" value="M" style="edgeLabel;html=1;align=center;verticalAlign=middle;resizable=0;points=[];fontFamily=Helvetica;fontSize=11;fontColor=default;labelBackgroundColor=default;" vertex="1" connectable="0" parent="eS1TJTtyaAnnKSHnrGX8-34">
          <mxGeometry x="0.0818" y="-4" relative="1" as="geometry">
            <mxPoint as="offset" />
          </mxGeometry>
        </mxCell>
        <mxCell id="eS1TJTtyaAnnKSHnrGX8-1" value="Escreve" style="rhombus;whiteSpace=wrap;html=1;" vertex="1" parent="1">
          <mxGeometry x="160" y="35" width="80" height="80" as="geometry" />
        </mxCell>
        <mxCell id="eS1TJTtyaAnnKSHnrGX8-2" value="Faz" style="rhombus;whiteSpace=wrap;html=1;" vertex="1" parent="1">
          <mxGeometry x="150" y="490" width="80" height="80" as="geometry" />
        </mxCell>
        <mxCell id="eS1TJTtyaAnnKSHnrGX8-4" value="ult_nome" style="ellipse;whiteSpace=wrap;html=1;" vertex="1" parent="1">
          <mxGeometry x="-280" y="-102.5" width="80" height="45" as="geometry" />
        </mxCell>
        <mxCell id="eS1TJTtyaAnnKSHnrGX8-5" value="&lt;u&gt;id&lt;/u&gt;" style="ellipse;whiteSpace=wrap;html=1;" vertex="1" parent="1">
          <mxGeometry x="640" y="210" width="70" height="40" as="geometry" />
        </mxCell>
        <mxCell id="eS1TJTtyaAnnKSHnrGX8-7" value="primeiro_nome" style="ellipse;whiteSpace=wrap;html=1;" vertex="1" parent="1">
          <mxGeometry x="-190" y="-110" width="80" height="50" as="geometry" />
        </mxCell>
        <mxCell id="eS1TJTtyaAnnKSHnrGX8-8" value="nome" style="ellipse;whiteSpace=wrap;html=1;" vertex="1" parent="1">
          <mxGeometry x="720" y="210" width="70" height="40" as="geometry" />
        </mxCell>
        <mxCell id="eS1TJTtyaAnnKSHnrGX8-9" value="nacionalidade" style="ellipse;whiteSpace=wrap;html=1;" vertex="1" parent="1">
          <mxGeometry x="-70" y="-20" width="75" height="40" as="geometry" />
        </mxCell>
        <mxCell id="eS1TJTtyaAnnKSHnrGX8-66" style="edgeStyle=orthogonalEdgeStyle;shape=connector;rounded=0;orthogonalLoop=1;jettySize=auto;html=1;exitX=0;exitY=0;exitDx=0;exitDy=0;entryX=0.5;entryY=1;entryDx=0;entryDy=0;strokeColor=default;align=center;verticalAlign=middle;fontFamily=Helvetica;fontSize=11;fontColor=default;labelBackgroundColor=default;endArrow=none;endFill=0;" edge="1" parent="1" source="eS1TJTtyaAnnKSHnrGX8-10" target="eS1TJTtyaAnnKSHnrGX8-4">
          <mxGeometry relative="1" as="geometry" />
        </mxCell>
        <mxCell id="eS1TJTtyaAnnKSHnrGX8-67" style="edgeStyle=orthogonalEdgeStyle;shape=connector;rounded=0;orthogonalLoop=1;jettySize=auto;html=1;exitX=1;exitY=0;exitDx=0;exitDy=0;entryX=0.5;entryY=1;entryDx=0;entryDy=0;strokeColor=default;align=center;verticalAlign=middle;fontFamily=Helvetica;fontSize=11;fontColor=default;labelBackgroundColor=default;endArrow=none;endFill=0;" edge="1" parent="1" source="eS1TJTtyaAnnKSHnrGX8-10" target="eS1TJTtyaAnnKSHnrGX8-7">
          <mxGeometry relative="1" as="geometry" />
        </mxCell>
        <mxCell id="eS1TJTtyaAnnKSHnrGX8-10" value="nome" style="ellipse;whiteSpace=wrap;html=1;" vertex="1" parent="1">
          <mxGeometry x="-230" y="-20" width="70" height="40" as="geometry" />
        </mxCell>
        <mxCell id="eS1TJTtyaAnnKSHnrGX8-11" value="&lt;u&gt;id&lt;/u&gt;" style="ellipse;whiteSpace=wrap;html=1;" vertex="1" parent="1">
          <mxGeometry x="-150" y="-20" width="70" height="40" as="geometry" />
        </mxCell>
        <mxCell id="eS1TJTtyaAnnKSHnrGX8-12" value="Tem" style="rhombus;whiteSpace=wrap;html=1;" vertex="1" parent="1">
          <mxGeometry x="505" y="152.5" width="80" height="80" as="geometry" />
        </mxCell>
        <mxCell id="eS1TJTtyaAnnKSHnrGX8-26" value="&lt;u&gt;id&lt;/u&gt;" style="ellipse;whiteSpace=wrap;html=1;" vertex="1" parent="1">
          <mxGeometry x="470" y="-20" width="70" height="40" as="geometry" />
        </mxCell>
        <mxCell id="eS1TJTtyaAnnKSHnrGX8-28" value="tÃ­tulo" style="ellipse;whiteSpace=wrap;html=1;" vertex="1" parent="1">
          <mxGeometry x="550" y="-20" width="70" height="40" as="geometry" />
        </mxCell>
        <mxCell id="eS1TJTtyaAnnKSHnrGX8-29" value="isbn" style="ellipse;whiteSpace=wrap;html=1;" vertex="1" parent="1">
          <mxGeometry x="630" y="-20" width="70" height="40" as="geometry" />
        </mxCell>
        <mxCell id="eS1TJTtyaAnnKSHnrGX8-35" value="data_pub" style="ellipse;whiteSpace=wrap;html=1;fontFamily=Helvetica;fontSize=11;fontColor=default;labelBackgroundColor=default;" vertex="1" parent="1">
          <mxGeometry x="390" y="-20" width="70" height="40" as="geometry" />
        </mxCell>
        <mxCell id="eS1TJTtyaAnnKSHnrGX8-39" value="&lt;u&gt;id&lt;/u&gt;" style="ellipse;whiteSpace=wrap;html=1;" vertex="1" parent="1">
          <mxGeometry x="280" y="360" width="70" height="40" as="geometry" />
        </mxCell>
        <mxCell id="eS1TJTtyaAnnKSHnrGX8-40" value="cod_livro" style="ellipse;whiteSpace=wrap;html=1;" vertex="1" parent="1">
          <mxGeometry x="360" y="360" width="70" height="40" as="geometry" />
        </mxCell>
        <mxCell id="eS1TJTtyaAnnKSHnrGX8-41" value="data_emp" style="ellipse;whiteSpace=wrap;html=1;" vertex="1" parent="1">
          <mxGeometry x="530" y="360" width="70" height="40" as="geometry" />
        </mxCell>
        <mxCell id="eS1TJTtyaAnnKSHnrGX8-42" value="data_devol" style="ellipse;whiteSpace=wrap;html=1;" vertex="1" parent="1">
          <mxGeometry x="610" y="360" width="70" height="40" as="geometry" />
        </mxCell>
        <mxCell id="eS1TJTtyaAnnKSHnrGX8-92" style="edgeStyle=orthogonalEdgeStyle;shape=connector;rounded=0;orthogonalLoop=1;jettySize=auto;html=1;exitX=0;exitY=0;exitDx=0;exitDy=0;entryX=0.5;entryY=1;entryDx=0;entryDy=0;strokeColor=default;align=center;verticalAlign=middle;fontFamily=Helvetica;fontSize=11;fontColor=default;labelBackgroundColor=default;endArrow=none;endFill=0;" edge="1" parent="1" source="eS1TJTtyaAnnKSHnrGX8-48" target="eS1TJTtyaAnnKSHnrGX8-50">
          <mxGeometry relative="1" as="geometry" />
        </mxCell>
        <mxCell id="eS1TJTtyaAnnKSHnrGX8-93" style="edgeStyle=orthogonalEdgeStyle;shape=connector;rounded=0;orthogonalLoop=1;jettySize=auto;html=1;exitX=1;exitY=0;exitDx=0;exitDy=0;entryX=0.5;entryY=1;entryDx=0;entryDy=0;strokeColor=default;align=center;verticalAlign=middle;fontFamily=Helvetica;fontSize=11;fontColor=default;labelBackgroundColor=default;endArrow=none;endFill=0;" edge="1" parent="1" source="eS1TJTtyaAnnKSHnrGX8-48" target="eS1TJTtyaAnnKSHnrGX8-49">
          <mxGeometry relative="1" as="geometry" />
        </mxCell>
        <mxCell id="eS1TJTtyaAnnKSHnrGX8-48" value="nome" style="ellipse;whiteSpace=wrap;html=1;" vertex="1" parent="1">
          <mxGeometry x="-275" y="310" width="70" height="40" as="geometry" />
        </mxCell>
        <mxCell id="eS1TJTtyaAnnKSHnrGX8-49" value="primeiro_nome" style="ellipse;whiteSpace=wrap;html=1;" vertex="1" parent="1">
          <mxGeometry x="-230" y="230" width="80" height="50" as="geometry" />
        </mxCell>
        <mxCell id="eS1TJTtyaAnnKSHnrGX8-50" value="ult_nome" style="ellipse;whiteSpace=wrap;html=1;" vertex="1" parent="1">
          <mxGeometry x="-320" y="232.5" width="80" height="45" as="geometry" />
        </mxCell>
        <mxCell id="eS1TJTtyaAnnKSHnrGX8-54" value="rua" style="ellipse;whiteSpace=wrap;html=1;" vertex="1" parent="1">
          <mxGeometry x="-30" y="310" width="70" height="40" as="geometry" />
        </mxCell>
        <mxCell id="eS1TJTtyaAnnKSHnrGX8-56" value="cp" style="ellipse;whiteSpace=wrap;html=1;" vertex="1" parent="1">
          <mxGeometry x="50" y="310" width="70" height="40" as="geometry" />
        </mxCell>
        <mxCell id="eS1TJTtyaAnnKSHnrGX8-58" value="data_reg" style="ellipse;whiteSpace=wrap;html=1;" vertex="1" parent="1">
          <mxGeometry x="-185" y="310" width="70" height="40" as="geometry" />
        </mxCell>
        <mxCell id="eS1TJTtyaAnnKSHnrGX8-60" value="&lt;u&gt;num_leitor&lt;/u&gt;" style="ellipse;whiteSpace=wrap;html=1;" vertex="1" parent="1">
          <mxGeometry x="-110" y="310" width="70" height="40" as="geometry" />
        </mxCell>
        <mxCell id="eS1TJTtyaAnnKSHnrGX8-62" value="estado_emp" style="ellipse;whiteSpace=wrap;html=1;" vertex="1" parent="1">
          <mxGeometry x="450" y="360" width="70" height="40" as="geometry" />
        </mxCell>
      </root>
    </mxGraphModel>
  </diagram>
</mxfile>
